<svg xmlns="http://www.w3.org/2000/svg" viewBox="0 0 1200 630" role="img" aria-labelledby="title desc">
  <title id="title">Lance FTS V3 Block-Row Layout</title>
  <desc id="desc">A visual cover showing an old monolithic posting list split into V3 block rows with metadata, payload, and positions.</desc>
  <rect width="1200" height="630" fill="#fbfbfc"/>
  <rect x="54" y="54" width="1092" height="522" rx="26" fill="#ffffff" stroke="#dfe4e9" stroke-width="2"/>
  <text x="92" y="128" fill="#15181c" font-family="-apple-system,BlinkMacSystemFont,Segoe UI,sans-serif" font-size="54" font-weight="700">Lance FTS V3</text>
  <text x="92" y="174" fill="#56616c" font-family="-apple-system,BlinkMacSystemFont,Segoe UI,sans-serif" font-size="28">Block-row layout turns cache and reads into choices.</text>

  <g transform="translate(92 242)">
    <text x="0" y="-26" fill="#a7392f" font-family="ui-monospace,SFMono-Regular,Menlo,monospace" font-size="18" font-weight="700">before</text>
    <rect x="0" y="0" width="390" height="76" rx="12" fill="#fae9e7" stroke="#e9bbb5" stroke-width="2"/>
    <text x="22" y="47" fill="#a7392f" font-family="ui-monospace,SFMono-Regular,Menlo,monospace" font-size="20" font-weight="700">term - full posting list payload</text>
    <rect x="0" y="104" width="390" height="76" rx="12" fill="#fae9e7" stroke="#e9bbb5" stroke-width="2"/>
    <text x="22" y="151" fill="#a7392f" font-family="ui-monospace,SFMono-Regular,Menlo,monospace" font-size="20" font-weight="700">read first, decide later</text>
  </g>

  <path d="M526 337h118" fill="none" stroke="#0f83cf" stroke-width="8" stroke-linecap="round"/>
  <path d="M644 337l-32-24v48z" fill="#0f83cf"/>

  <g transform="translate(694 218)">
    <text x="0" y="-2" fill="#0f83cf" font-family="ui-monospace,SFMono-Regular,Menlo,monospace" font-size="18" font-weight="700">after</text>
    <g transform="translate(0 28)">
      <rect x="0" y="0" width="120" height="52" rx="10" fill="#e8f4fc" stroke="#a8d5f2" stroke-width="2"/>
      <rect x="136" y="0" width="120" height="52" rx="10" fill="#e8f4fc" stroke="#a8d5f2" stroke-width="2"/>
      <rect x="272" y="0" width="120" height="52" rx="10" fill="#e8f4fc" stroke="#a8d5f2" stroke-width="2"/>
      <text x="20" y="34" fill="#0f83cf" font-family="ui-monospace,SFMono-Regular,Menlo,monospace" font-size="16" font-weight="700">first</text>
      <text x="160" y="34" fill="#0f83cf" font-family="ui-monospace,SFMono-Regular,Menlo,monospace" font-size="16" font-weight="700">last</text>
      <text x="296" y="34" fill="#0f83cf" font-family="ui-monospace,SFMono-Regular,Menlo,monospace" font-size="16" font-weight="700">score</text>
    </g>
    <g transform="translate(0 96)">
      <rect x="0" y="0" width="392" height="62" rx="10" fill="#e8f5ee" stroke="#b9e2cc" stroke-width="2"/>
      <text x="22" y="39" fill="#157048" font-family="ui-monospace,SFMono-Regular,Menlo,monospace" font-size="18" font-weight="700">payload block row, read only if useful</text>
    </g>
    <g transform="translate(0 174)">
      <rect x="0" y="0" width="392" height="62" rx="10" fill="#f0edfb" stroke="#d5cdf4" stroke-width="2"/>
      <text x="22" y="39" fill="#7259b8" font-family="ui-monospace,SFMono-Regular,Menlo,monospace" font-size="18" font-weight="700">positions row, lazy for phrase queries</text>
    </g>
  </g>

  <g transform="translate(92 504)">
    <rect x="0" y="0" width="300" height="44" rx="22" fill="#e8f4fc" stroke="#a8d5f2"/>
    <text x="24" y="29" fill="#0f83cf" font-family="ui-monospace,SFMono-Regular,Menlo,monospace" font-size="16" font-weight="700">selective cache: 4.09 MiB</text>
    <rect x="326" y="0" width="256" height="44" rx="22" fill="#e8f5ee" stroke="#b9e2cc"/>
    <text x="350" y="29" fill="#157048" font-family="ui-monospace,SFMono-Regular,Menlo,monospace" font-size="16" font-weight="700">1376-1408 QPS</text>
    <rect x="608" y="0" width="346" height="44" rx="22" fill="#fff4dd" stroke="#efd99d"/>
    <text x="632" y="29" fill="#8f5f12" font-family="ui-monospace,SFMono-Regular,Menlo,monospace" font-size="16" font-weight="700">cold path still needs work</text>
  </g>
</svg>
