<?xml version="1.0" encoding="UTF-8" standalone="no"?>
<!DOCTYPE svg PUBLIC "-//W3C//DTD SVG 1.1//EN"
 "http://www.w3.org/Graphics/SVG/1.1/DTD/svg11.dtd">
<!-- Generated by graphviz version 2.30.1 (20150306.0020)
 -->
<!-- Title: KMS Pages: 1 -->
<svg width="375pt" height="409pt"
 viewBox="0.00 0.00 375.00 409.00" xmlns="http://www.w3.org/2000/svg" xmlns:xlink="http://www.w3.org/1999/xlink">
<g id="graph0" class="graph" transform="scale(1 1) rotate(0) translate(4 405)">
<title>KMS</title>
<polygon fill="white" stroke="white" points="-4,5 -4,-405 372,-405 372,5 -4,5"/>
<g id="clust1" class="cluster"><title>cluster_static</title>
<polygon fill="none" stroke="black" stroke-dasharray="5,2" points="20,-91 20,-310 258,-310 258,-91 20,-91"/>
<text text-anchor="middle" x="139" y="-294.8" font-family="Times,serif" font-size="14.00">Static Objects</text>
</g>
<g id="clust2" class="cluster"><title>cluster_user_created</title>
<polygon fill="none" stroke="black" stroke-dasharray="5,2" points="8,-318 8,-393 359,-393 359,-318 8,-318"/>
<text text-anchor="middle" x="183.5" y="-377.8" font-family="Times,serif" font-size="14.00">Userspace&#45;Created</text>
</g>
<g id="clust3" class="cluster"><title>cluster_connector</title>
<polygon fill="none" stroke="black" stroke-dasharray="5,2" points="9,-8 9,-83 269,-83 269,-8 9,-8"/>
<text text-anchor="middle" x="139" y="-67.8" font-family="Times,serif" font-size="14.00">Hotpluggable</text>
</g>
<!-- drm_plane A -->
<g id="node1" class="node"><title>drm_plane A</title>
<polygon fill="lightgrey" stroke="black" points="249.25,-279 160.75,-279 160.75,-243 249.25,-243 249.25,-279"/>
<text text-anchor="middle" x="205" y="-257.3" font-family="Times,serif" font-size="14.00">drm_plane A</text>
</g>
<!-- drm_crtc -->
<g id="node2" class="node"><title>drm_crtc</title>
<polygon fill="lightgrey" stroke="black" points="180,-207 114,-207 114,-171 180,-171 180,-207"/>
<text text-anchor="middle" x="147" y="-185.3" font-family="Times,serif" font-size="14.00">drm_crtc</text>
</g>
<!-- drm_plane A&#45;&gt;drm_crtc -->
<g id="edge1" class="edge"><title>drm_plane A&#45;&gt;drm_crtc</title>
<path fill="none" stroke="black" d="M190.663,-242.697C183.709,-234.305 175.23,-224.07 167.599,-214.861"/>
<polygon fill="black" stroke="black" points="170.247,-212.571 161.172,-207.104 164.857,-217.038 170.247,-212.571"/>
</g>
<!-- drm_encoder A -->
<g id="node4" class="node"><title>drm_encoder A</title>
<polygon fill="lightgrey" stroke="black" points="130,-135 28,-135 28,-99 130,-99 130,-135"/>
<text text-anchor="middle" x="79" y="-113.3" font-family="Times,serif" font-size="14.00">drm_encoder A</text>
</g>
<!-- drm_crtc&#45;&gt;drm_encoder A -->
<g id="edge3" class="edge"><title>drm_crtc&#45;&gt;drm_encoder A</title>
<path fill="none" stroke="black" d="M130.191,-170.697C121.874,-162.135 111.695,-151.656 102.61,-142.304"/>
<polygon fill="black" stroke="black" points="105.094,-139.838 95.6156,-135.104 100.073,-144.716 105.094,-139.838"/>
</g>
<!-- drm_encoder B -->
<g id="node5" class="node"><title>drm_encoder B</title>
<polygon fill="lightgrey" stroke="black" points="249.25,-135 148.75,-135 148.75,-99 249.25,-99 249.25,-135"/>
<text text-anchor="middle" x="199" y="-113.3" font-family="Times,serif" font-size="14.00">drm_encoder B</text>
</g>
<!-- drm_crtc&#45;&gt;drm_encoder B -->
<g id="edge4" class="edge"><title>drm_crtc&#45;&gt;drm_encoder B</title>
<path fill="none" stroke="black" d="M159.854,-170.697C166.025,-162.389 173.537,-152.277 180.324,-143.141"/>
<polygon fill="black" stroke="black" points="183.14,-145.219 186.294,-135.104 177.521,-141.045 183.14,-145.219"/>
</g>
<!-- drm_plane B -->
<g id="node3" class="node"><title>drm_plane B</title>
<polygon fill="lightgrey" stroke="black" points="140,-279 52,-279 52,-243 140,-243 140,-279"/>
<text text-anchor="middle" x="96" y="-257.3" font-family="Times,serif" font-size="14.00">drm_plane B</text>
</g>
<!-- drm_plane B&#45;&gt;drm_crtc -->
<g id="edge2" class="edge"><title>drm_plane B&#45;&gt;drm_crtc</title>
<path fill="none" stroke="black" d="M108.607,-242.697C114.597,-234.474 121.876,-224.483 128.479,-215.421"/>
<polygon fill="black" stroke="black" points="131.478,-217.248 134.538,-207.104 125.821,-213.126 131.478,-217.248"/>
</g>
<!-- drm_connector A -->
<g id="node8" class="node"><title>drm_connector A</title>
<polygon fill="none" stroke="black" points="130.25,-52 17.75,-52 17.75,-16 130.25,-16 130.25,-52"/>
<text text-anchor="middle" x="74" y="-30.3" font-family="Times,serif" font-size="14.00">drm_connector A</text>
</g>
<!-- drm_encoder A&#45;&gt;drm_connector A -->
<g id="edge7" class="edge"><title>drm_encoder A&#45;&gt;drm_connector A</title>
<path fill="none" stroke="black" d="M77.9396,-98.822C77.2834,-88.1903 76.4263,-74.306 75.6792,-62.2035"/>
<polygon fill="black" stroke="black" points="79.1684,-61.9186 75.0588,-52.1533 72.1817,-62.3499 79.1684,-61.9186"/>
</g>
<!-- drm_connector B -->
<g id="node9" class="node"><title>drm_connector B</title>
<polygon fill="none" stroke="black" points="261,-52 149,-52 149,-16 261,-16 261,-52"/>
<text text-anchor="middle" x="205" y="-30.3" font-family="Times,serif" font-size="14.00">drm_connector B</text>
</g>
<!-- drm_encoder B&#45;&gt;drm_connector B -->
<g id="edge8" class="edge"><title>drm_encoder B&#45;&gt;drm_connector B</title>
<path fill="none" stroke="black" d="M200.272,-98.822C201.06,-88.1903 202.088,-74.306 202.985,-62.2035"/>
<polygon fill="black" stroke="black" points="206.481,-62.3845 203.729,-52.1533 199.5,-61.8673 206.481,-62.3845"/>
</g>
<!-- drm_framebuffer 1 -->
<g id="node6" class="node"><title>drm_framebuffer 1</title>
<ellipse fill="none" stroke="black" cx="272" cy="-344" rx="78.9404" ry="18"/>
<text text-anchor="middle" x="272" y="-340.3" font-family="Times,serif" font-size="14.00">drm_framebuffer 1</text>
</g>
<!-- drm_framebuffer 1&#45;&gt;drm_plane A -->
<g id="edge5" class="edge"><title>drm_framebuffer 1&#45;&gt;drm_plane A</title>
<path fill="none" stroke="black" d="M258.118,-326.217C248.748,-314.889 236.217,-299.74 225.679,-287"/>
<polygon fill="black" stroke="black" points="228.166,-284.515 219.095,-279.04 222.772,-288.977 228.166,-284.515"/>
</g>
<!-- drm_framebuffer 2 -->
<g id="node7" class="node"><title>drm_framebuffer 2</title>
<ellipse fill="none" stroke="black" cx="95" cy="-344" rx="78.9404" ry="18"/>
<text text-anchor="middle" x="95" y="-340.3" font-family="Times,serif" font-size="14.00">drm_framebuffer 2</text>
</g>
<!-- drm_framebuffer 2&#45;&gt;drm_plane B -->
<g id="edge6" class="edge"><title>drm_framebuffer 2&#45;&gt;drm_plane B</title>
<path fill="none" stroke="black" d="M95.2121,-325.822C95.3433,-315.19 95.5147,-301.306 95.6642,-289.204"/>
<polygon fill="black" stroke="black" points="99.1644,-289.196 95.7882,-279.153 92.165,-289.109 99.1644,-289.196"/>
</g>
</g>
</svg>
