<svg xmlns="http://www.w3.org/2000/svg" viewBox="0 0 1200 675" role="img" aria-labelledby="title desc">
  <title id="title">Lance Discrete Sparse Layout</title>
  <desc id="desc">A compact diagram showing sparse row structure separated from leaf values.</desc>
  <rect width="1200" height="675" fill="#f7f7f4"/>
  <rect x="72" y="72" width="1056" height="531" rx="16" fill="#ffffff" stroke="#d9ddd6"/>
  <text x="112" y="142" fill="#222723" font-family="ui-sans-serif, system-ui, sans-serif" font-size="44" font-weight="700">Discrete Sparse Layout</text>
  <text x="112" y="188" fill="#657066" font-family="ui-monospace, SFMono-Regular, Menlo, monospace" font-size="22">row domain -&gt; slot domains -&gt; compact leaf values</text>

  <g transform="translate(112 264)">
    <text x="0" y="-30" fill="#222723" font-family="ui-sans-serif, system-ui, sans-serif" font-size="21" font-weight="700">logical rows</text>
    <g fill="#eef0ec" stroke="#cfd5cf" stroke-width="2">
      <rect x="0" y="0" width="82" height="58" rx="8"/>
      <rect x="94" y="0" width="82" height="58" rx="8"/>
      <rect x="188" y="0" width="82" height="58" rx="8"/>
      <rect x="282" y="0" width="82" height="58" rx="8"/>
      <rect x="376" y="0" width="82" height="58" rx="8"/>
      <rect x="470" y="0" width="82" height="58" rx="8"/>
    </g>
    <g fill="#7b8490" font-family="ui-monospace, SFMono-Regular, Menlo, monospace" font-size="22" font-weight="700" text-anchor="middle">
      <text x="41" y="37">0</text>
      <text x="135" y="37">1</text>
      <text x="229" y="37">2</text>
      <text x="323" y="37">3</text>
      <text x="417" y="37">4</text>
      <text x="511" y="37">5</text>
    </g>
  </g>

  <path d="M690 292 L780 292" fill="none" stroke="#dd5f2a" stroke-width="5" stroke-linecap="round"/>
  <path d="M780 292 l-16 -11 v22z" fill="#dd5f2a"/>

  <g transform="translate(820 234)">
    <text x="0" y="-24" fill="#222723" font-family="ui-sans-serif, system-ui, sans-serif" font-size="21" font-weight="700">sparse structure</text>
    <rect x="0" y="0" width="228" height="44" rx="8" fill="#fff4e8" stroke="#e8873e" stroke-width="2"/>
    <rect x="0" y="60" width="228" height="44" rx="8" fill="#edf9f5" stroke="#1d9a87" stroke-width="2"/>
    <rect x="0" y="120" width="228" height="44" rx="8" fill="#f3edff" stroke="#7c57c2" stroke-width="2"/>
    <g font-family="ui-monospace, SFMono-Regular, Menlo, monospace" font-size="19" font-weight="700">
      <text x="18" y="29" fill="#bf5a1f">non_empty [1,4]</text>
      <text x="18" y="89" fill="#147a6c">counts [2,1]</text>
      <text x="18" y="149" fill="#6046a6">nulls [2]</text>
    </g>
  </g>

  <g transform="translate(278 472)">
    <text x="0" y="-24" fill="#222723" font-family="ui-sans-serif, system-ui, sans-serif" font-size="21" font-weight="700">leaf payload only</text>
    <rect x="0" y="0" width="118" height="58" rx="10" fill="#dfecff" stroke="#2d72d9" stroke-width="2"/>
    <rect x="132" y="0" width="118" height="58" rx="10" fill="#dfecff" stroke="#2d72d9" stroke-width="2"/>
    <rect x="264" y="0" width="118" height="58" rx="10" fill="#dfecff" stroke="#2d72d9" stroke-width="2"/>
    <g fill="#1d5fbf" font-family="ui-monospace, SFMono-Regular, Menlo, monospace" font-size="24" font-weight="800" text-anchor="middle">
      <text x="59" y="37">10</text>
      <text x="191" y="37">11</text>
      <text x="323" y="37">12</text>
    </g>
  </g>
</svg>
